<svg width="52" height="52" viewBox="0 0 52 52" fill="none" xmlns="http://www.w3.org/2000/svg">
<rect width="52" height="52" rx="9" fill="#FFF3F7"/>
<g clip-path="url(#clip0_127_508)">
<path d="M32.2466 29.8765C31.4625 29.1024 30.4837 29.1024 29.7046 29.8765C29.1103 30.4658 28.516 31.0551 27.9316 31.6544C27.7718 31.8192 27.637 31.8542 27.4422 31.7443C27.0577 31.5346 26.6481 31.3648 26.2786 31.135C24.5556 30.0513 23.1123 28.6579 21.8338 27.0897C21.1995 26.3107 20.6352 25.4766 20.2406 24.5377C20.1607 24.3479 20.1757 24.2231 20.3305 24.0683C20.9248 23.4939 21.5041 22.9046 22.0885 22.3153C22.9025 21.4963 22.9025 20.5374 22.0835 19.7133C21.619 19.2439 21.1546 18.7844 20.6901 18.315C20.2107 17.8355 19.7362 17.3511 19.2518 16.8767C18.4677 16.1125 17.4888 16.1125 16.7097 16.8817C16.1104 17.471 15.5361 18.0753 14.9268 18.6546C14.3625 19.189 14.0778 19.8432 14.0179 20.6073C13.923 21.8509 14.2276 23.0245 14.6571 24.1682C15.5361 26.5354 16.8745 28.6379 18.4977 30.5657C20.6901 33.1726 23.307 35.2352 26.3685 36.7235C27.7469 37.3927 29.1752 37.9071 30.7284 37.992C31.7971 38.052 32.7261 37.7823 33.4702 36.9482C33.9796 36.3789 34.5539 35.8595 35.0933 35.3151C35.8924 34.5061 35.8974 33.5272 35.1033 32.7282C34.1544 31.7743 33.2005 30.8254 32.2466 29.8765Z" fill="#37414F"/>
<path d="M31.2926 25.8961L33.1354 25.5815C32.8458 23.8885 32.0467 22.3553 30.8331 21.1367C29.5496 19.8532 27.9265 19.0441 26.1386 18.7944L25.8789 20.6473C27.2623 20.842 28.5208 21.4663 29.5147 22.4602C30.4536 23.3991 31.0679 24.5877 31.2926 25.8961Z" fill="#37414F"/>
<path d="M34.1741 17.8855C32.0466 15.7579 29.3548 14.4145 26.3832 14L26.1235 15.8528C28.6905 16.2124 31.0178 17.3761 32.8557 19.2089C34.5986 20.9519 35.7423 23.1543 36.1568 25.5765L37.9997 25.2619C37.5152 22.4551 36.1918 19.9081 34.1741 17.8855Z" fill="#37414F"/>
</g>
<defs>
<clipPath id="clip0_127_508">
<rect width="24" height="24" fill="white" transform="translate(14 14)"/>
</clipPath>
</defs>
</svg>
