<svg width="52" height="52" viewBox="0 0 52 52" fill="none" xmlns="http://www.w3.org/2000/svg">
<rect width="52" height="52" rx="9" fill="#FFF3F7"/>
<path d="M17.168 33.2H22.448L21.968 35.12H19.856C19.28 35.12 18.896 35.504 18.896 36.08C18.896 36.56 19.28 37.04 19.856 37.04H32.144C32.72 37.04 33.104 36.56 33.104 36.08C33.104 35.504 32.72 35.12 32.144 35.12H30.128L29.648 33.2H34.928C36.368 33.2 37.616 31.952 37.616 30.512C37.616 25.904 37.616 22.448 37.616 17.744C37.616 16.304 36.368 15.056 34.928 15.056H17.168C15.728 14.96 14.48 16.208 14.48 17.648V30.416C14.48 31.952 15.632 33.2 17.168 33.2ZM16.4 17.648C16.4 17.264 16.784 16.88 17.168 16.88H34.832C35.216 16.88 35.6 17.264 35.6 17.648V27.44H16.4V17.648Z" fill="#37414F"/>
<path d="M31.7598 23.9839C31.2798 23.9839 30.9918 23.6959 30.7998 23.4079C30.6078 23.0239 30.7038 22.6399 30.9918 22.3519L31.0878 22.2559C31.4718 21.8719 31.4718 21.2959 31.0878 20.9119L30.4158 20.2399C30.0318 19.8559 29.4558 19.8559 29.0718 20.2399L28.9758 20.3359C28.7838 20.7199 28.3998 20.7199 28.0158 20.6239C28.0158 20.6239 28.0158 20.6239 27.9198 20.6239C27.5358 20.5279 27.3438 20.1439 27.3438 19.7599V19.6639C27.3438 19.1839 26.9598 18.7039 26.3838 18.7039H25.5198C25.0398 18.7039 24.5598 19.0879 24.5598 19.6639V19.7599C24.5598 20.1439 24.3678 20.5279 23.9838 20.6239C23.9838 20.6239 23.9838 20.6239 23.8878 20.6239C23.5998 20.7199 23.2158 20.7199 22.9278 20.4319V20.3359C22.5438 19.9519 21.9678 19.9519 21.5838 20.3359L20.9118 21.0079C20.5278 21.3919 20.5278 21.9679 20.9118 22.3519L21.0078 22.4479C21.2958 22.6399 21.3918 23.0239 21.1998 23.4079C21.0078 23.7919 20.7198 23.9839 20.3358 23.9839H20.2398C19.7598 23.9839 19.2798 24.3679 19.2798 24.9439V25.5199H23.1198V25.4239C23.1198 23.7919 24.3678 22.5439 25.9998 22.5439C27.6318 22.5439 28.8798 23.7919 28.8798 25.4239V25.5199H32.7198V24.9439C32.7198 24.4639 32.2398 23.9839 31.7598 23.9839Z" fill="#37414F"/>
</svg>
