<svg width="52" height="52" viewBox="0 0 52 52" fill="none" xmlns="http://www.w3.org/2000/svg">
<rect width="52" height="52" rx="9" fill="#FFF3F7"/>
<path d="M37.25 24.125V27.875C37.25 28.9092 36.4092 29.75 35.375 29.75H34.8645C34.1475 33.9995 30.4509 37.25 26 37.25C25.5854 37.25 25.25 36.9146 25.25 36.5C25.25 36.0854 25.5854 35.75 26 35.75C30.1353 35.75 33.5 32.3853 33.5 28.25V23.75C33.5 19.6147 30.1353 16.25 26 16.25C21.8647 16.25 18.5 19.6147 18.5 23.75V29C18.5 29.4146 18.1646 29.75 17.75 29.75H16.625C15.5908 29.75 14.75 28.9092 14.75 27.875V24.125C14.75 23.0908 15.5908 22.25 16.625 22.25H17.1355C17.8525 18.0005 21.5491 14.75 26 14.75C30.4509 14.75 34.1475 18.0005 34.8645 22.25H35.375C36.4092 22.25 37.25 23.0908 37.25 24.125ZM26 17.75C22.6917 17.75 20 20.4417 20 23.75V27.5C20 30.8083 22.6917 33.5 26 33.5C29.3083 33.5 32 30.8083 32 27.5V23.75C32 20.4417 29.3083 17.75 26 17.75Z" fill="#37414F"/>
</svg>
